<svg xmlns="http://www.w3.org/2000/svg" width="29" height="22" viewBox="0 0 29 22">
    <g fill="#FFF" fill-rule="nonzero">
        <path d="M4.492 17.38a.62.62 0 0 1-.625-.613V4.48c0-.34.28-.614.625-.614a.62.62 0 0 1 .625.614v12.286a.62.62 0 0 1-.625.614zM6.991 14.924a.62.62 0 0 1-.625-.615V4.481c0-.34.28-.614.625-.614a.62.62 0 0 1 .625.614v9.828a.62.62 0 0 1-.625.615zM9.49 14.924a.62.62 0 0 1-.624-.615V4.481c0-.34.28-.614.625-.614a.62.62 0 0 1 .625.614v9.828a.62.62 0 0 1-.625.615zM11.99 14.924a.62.62 0 0 1-.624-.615V4.481c0-.34.28-.614.625-.614a.62.62 0 0 1 .625.614v9.828a.62.62 0 0 1-.625.615zM14.49 17.38a.62.62 0 0 1-.625-.613V4.48c0-.34.28-.614.625-.614a.62.62 0 0 1 .625.614v12.286a.62.62 0 0 1-.625.614zM16.99 14.924a.62.62 0 0 1-.625-.615V4.481c0-.34.28-.614.625-.614a.62.62 0 0 1 .625.614v9.828a.62.62 0 0 1-.625.615zM19.49 14.924a.62.62 0 0 1-.625-.615V4.481c0-.34.28-.614.625-.614a.62.62 0 0 1 .625.614v9.828a.62.62 0 0 1-.625.615zM21.99 14.924a.62.62 0 0 1-.626-.615V4.481c0-.34.28-.614.625-.614a.62.62 0 0 1 .625.614v9.828a.62.62 0 0 1-.625.615zM24.489 17.38a.62.62 0 0 1-.625-.613V4.48c0-.34.28-.614.625-.614a.62.62 0 0 1 .625.614v12.286a.62.62 0 0 1-.625.614zM6.991 17.38a.515.515 0 0 1-.237-.048.443.443 0 0 1-.2-.135.586.586 0 0 1 0-.86.442.442 0 0 1 .2-.136.625.625 0 0 1 .675.136.607.607 0 0 1-.009.868.63.63 0 0 1-.429.176zM9.49 17.38a.515.515 0 0 1-.237-.048.443.443 0 0 1-.2-.135.586.586 0 0 1 0-.86.442.442 0 0 1 .2-.136.62.62 0 0 1 .675.136c.064.051.112.12.138.196a.57.57 0 0 1 0 .467.43.43 0 0 1-.138.197.59.59 0 0 1-.437.184zM11.99 17.38a.515.515 0 0 1-.237-.048.443.443 0 0 1-.2-.135.586.586 0 0 1 0-.86.442.442 0 0 1 .2-.136.62.62 0 0 1 .675.136c.064.051.111.12.138.196a.57.57 0 0 1 0 .467.43.43 0 0 1-.138.197.59.59 0 0 1-.437.184zM16.99 17.38a.62.62 0 0 1-.616-.622.61.61 0 0 1 .178-.421.633.633 0 0 1 .875 0c.064.051.111.12.138.196a.57.57 0 0 1 0 .467.43.43 0 0 1-.138.197.59.59 0 0 1-.437.184zM19.49 17.38a.62.62 0 0 1-.617-.622.609.609 0 0 1 .18-.421.633.633 0 0 1 .874 0 .607.607 0 0 1-.009.868.63.63 0 0 1-.428.176zM21.99 17.38a.59.59 0 0 1-.438-.183.429.429 0 0 1-.138-.197.57.57 0 0 1 0-.467.434.434 0 0 1 .138-.196.633.633 0 0 1 .875 0 .607.607 0 0 1-.01.868.63.63 0 0 1-.428.176z"/>
        <g>
            <path d="M.63 5A.627.627 0 0 1 0 4.373V.624C0 .28.282 0 .63 0h3.78c.348 0 .63.28.63.625a.628.628 0 0 1-.63.625H1.26v3.124A.627.627 0 0 1 .63 5zM4.41 21.247H.63a.628.628 0 0 1-.63-.625v-3.75c0-.344.282-.624.63-.624.348 0 .63.28.63.625v3.124h3.15c.348 0 .63.28.63.625a.627.627 0 0 1-.63.625zM28.35 5a.628.628 0 0 1-.63-.626V1.25h-3.15a.628.628 0 0 1-.63-.625c0-.345.282-.625.63-.625h3.78c.348 0 .63.28.63.625v3.75a.627.627 0 0 1-.63.624zM28.35 21.247h-3.78a.628.628 0 0 1-.63-.625c0-.345.282-.625.63-.625h3.15v-3.124c0-.345.282-.625.63-.625.348 0 .63.28.63.625v3.75a.628.628 0 0 1-.63.624z"/>
        </g>
        <path d="M4.35 17.4c-.267 0-.483-.275-.483-.615V4.482c0-.34.216-.615.483-.615s.483.275.483.615v12.303c0 .34-.216.615-.483.615zM7.253 17.4a.402.402 0 0 1-.185-.039.347.347 0 0 1-.156-.107.467.467 0 0 1 0-.678.347.347 0 0 1 .156-.106.49.49 0 0 1 .37 0c.061.02.115.057.156.106a.483.483 0 0 1-.34.824zM9.184 17.4a.487.487 0 0 1-.484-.49.483.483 0 0 1 .67-.44c.061.02.115.058.156.107a.48.48 0 0 1-.006.685.493.493 0 0 1-.336.138zM12.084 17.4a.487.487 0 0 1-.484-.49.482.482 0 0 1 .14-.334.35.35 0 0 1 .157-.107.488.488 0 0 1 .53.107.48.48 0 0 1-.007.685.493.493 0 0 1-.337.139h.001zM16.92 17.4a.429.429 0 0 1-.185-.039.347.347 0 0 1-.156-.106.467.467 0 0 1 0-.679.347.347 0 0 1 .156-.106.49.49 0 0 1 .37 0c.061.02.115.057.156.106a.483.483 0 0 1-.341.824zM19.816 17.4a.42.42 0 0 1-.183-.039.345.345 0 0 1-.155-.107.474.474 0 0 1 0-.682.48.48 0 0 1 .676 0 .472.472 0 0 1 0 .682.34.34 0 0 1-.154.107.418.418 0 0 1-.184.039zM21.75 17.4a.423.423 0 0 1-.183-.039.345.345 0 0 1-.155-.106.455.455 0 0 1-.145-.34.388.388 0 0 1 .039-.184.341.341 0 0 1 .105-.155.344.344 0 0 1 .155-.107.477.477 0 0 1 .522.107.351.351 0 0 1 .106.155c.028.057.041.12.04.184a.498.498 0 0 1-.485.485h.001zM.604 4.833A.604.604 0 0 1 0 4.23V.604C0 .271.27 0 .604 0H4.23a.604.604 0 0 1 0 1.208H1.21V4.23c0 .334-.271.604-.605.604zM4.23 21.267H.603A.604.604 0 0 1 0 20.662v-3.624a.604.604 0 0 1 1.208 0v3.02H4.23a.604.604 0 0 1 0 1.209zM28.396 4.833a.604.604 0 0 1-.604-.604V1.21H24.77a.604.604 0 0 1 0-1.209h3.625c.333 0 .604.27.604.604V4.23c0 .334-.27.604-.604.604zM28.396 21.267H24.77a.604.604 0 0 1 0-1.209h3.02v-3.02a.604.604 0 0 1 1.209 0v3.624c0 .334-.27.605-.604.605z"/>
    </g>
</svg>
