<svg xmlns="http://www.w3.org/2000/svg" width="21" height="24" viewBox="0 0 21 24">
    <path fill="#2EBA27" fill-rule="nonzero" d="M19.671 8.585h-.57V5.804c0-.018-.002-.035-.004-.053a.465.465 0 0 0-.11-.304L14.413.16c0-.002-.002-.002-.003-.003a.453.453 0 0 0-.123-.097.484.484 0 0 0-.092-.04l-.025-.008A.462.462 0 0 0 14.064 0H2.828a.937.937 0 0 0-.93.941v7.643H1.33C.595 8.584 0 9.187 0 9.93v6.995c0 .742.595 1.345 1.33 1.345h.568v4.789c0 .519.417.941.93.941h15.344c.512 0 .93-.422.93-.941V18.27h.569c.734 0 1.329-.602 1.329-1.345V9.93c0-.743-.595-1.345-1.329-1.345zM2.828.94H13.6v4.815c0 .26.209.471.465.471h4.108v2.358H2.828V.94zm7 12.768c-1.153-.407-1.905-1.053-1.905-2.075 0-1.2.989-2.117 2.626-2.117.784 0 1.36.167 1.772.355l-.35 1.283a3.26 3.26 0 0 0-1.452-.335c-.68 0-1.01.313-1.01.678 0 .449.392.647 1.288.99 1.226.46 1.803 1.106 1.803 2.096 0 1.178-.896 2.18-2.802 2.18-.793 0-1.577-.21-1.968-.428l.32-1.314c.422.22 1.07.438 1.74.438.722 0 1.103-.302 1.103-.761 0-.438-.33-.688-1.164-.99zm-8.18-.46c0-2.397 1.69-3.732 3.791-3.732.814 0 1.432.167 1.71.313l-.319 1.261a3.367 3.367 0 0 0-1.319-.26c-1.246 0-2.214.761-2.214 2.325 0 1.407.824 2.293 2.225 2.293.474 0 .999-.104 1.308-.229l.237 1.24c-.288.147-.937.304-1.782.304-2.4 0-3.637-1.513-3.637-3.514zm16.524 9.555H2.828V18.27h15.344v4.534zm-1.039-6.145H15.3l-2.225-7.027h1.721l.845 2.972c.236.834.453 1.636.618 2.512h.03c.176-.844.392-1.678.629-2.481l.886-3.003h1.67l-2.34 7.027z"/>
</svg>
