<svg xmlns="http://www.w3.org/2000/svg" width="26" height="22" viewBox="0 0 26 22">
    <g fill="#FFF" fill-rule="nonzero">
        <path d="M0 19.347c.114-.587.184-1.186.349-1.754.482-1.704 1.459-3.095 2.86-4.194a8.111 8.111 0 0 1 3.433-1.591c2.322-.468 4.479-.062 6.464 1.23.12.074.235.162.355.243.013.006.032.012.026.012 2.804-2.59 5.918-3.22 9.255-1.186 2.633 1.604 3.464 4.144 3.216 7.115h-9.147v2.06H.355c-.12 0-.234.012-.355.018v-1.953zm15.288.418c-.12-2.372-1.116-4.269-3.133-5.536-2.43-1.529-4.968-1.541-7.416-.05-2.075 1.261-3.09 3.183-3.223 5.586h13.772zm9.142-2.053c0-1.879-1.282-4.013-3.496-4.88-2.334-.912-4.859-.157-6.274 1.51.032.043.064.093.102.137.78.905 1.37 1.916 1.694 3.064.057.194.177.187.323.187h7.352l.299-.018zM13 5.403c.007 1.848-1.256 3.647-3.133 4.34a4.759 4.759 0 0 1-5.312-1.447c-1.747-2.133-1.348-5.23.89-6.893 1.877-1.39 4.63-1.15 6.214.544.883.952 1.315 2.059 1.341 3.456zm-7.961-.26c-.007.76.163 1.36.503 1.904a3.14 3.14 0 0 0 4.946.538c1.289-1.323 1.236-3.48-.118-4.748a3.107 3.107 0 0 0-4.134-.136c-.805.674-1.178 1.546-1.197 2.442zM14.734 5.357c.062-1.458.792-2.851 2.375-3.63 1.671-.817 3.56-.209 4.676 1.446 1.334 1.975.83 4.885-1.078 6.2-1.82 1.255-4.24.667-5.35-1.308-.424-.759-.636-1.563-.623-2.708zm1.496.34c.006.687.212 1.295.617 1.838a2.2 2.2 0 0 0 3.579-.006c.73-1.008.81-2.23.212-3.33-.461-.856-1.434-1.373-2.3-1.235-1.216.196-2.133 1.38-2.108 2.733z"/>
    </g>
</svg>
