<svg xmlns="http://www.w3.org/2000/svg" width="30" height="22" viewBox="0 0 30 22">
    <g fill="#FFF" fill-rule="nonzero">
        <path stroke="#FFF" stroke-width=".5" d="M27 1H3c-1.103 0-2 .884-2 1.97v16.06C1 20.117 1.897 21 3 21h24.224c.47 0 .915-.184 1.252-.51l.006-.006A1.73 1.73 0 0 0 29 19.256V2.97C29 1.884 28.103 1 27 1zm.844 18.861a.868.868 0 0 1-.614.255H3a1.092 1.092 0 0 1-1.097-1.08V2.97c0-.599.494-1.08 1.096-1.08h24.002c.602 0 1.096.487 1.096 1.08v16.287c0 .226-.09.44-.253.605z"/>
        <path stroke="#FFF" stroke-width=".25" d="M14.302 9H8.698a.708.708 0 0 0-.494.195.646.646 0 0 0-.204.472v3.666c0 .368.313.667.698.667h5.604c.385 0 .698-.299.698-.667V9.661c0-.368-.313-.661-.698-.661zm-.204.862v3.276H8.902V9.862h5.196z"/>
        <path stroke="#FFF" stroke-width=".5" d="M4.8 10.5c.414 0 .75-.338.75-.753A.747.747 0 0 0 4.8 9a.752.752 0 0 0-.75.753c0 .415.336.747.75.747zM4.8 14.5c.414 0 .75-.338.75-.753A.747.747 0 0 0 4.8 13a.752.752 0 0 0-.75.753c0 .415.336.747.75.747zM4.75 18.5c.414 0 .75-.338.75-.753A.747.747 0 0 0 4.75 17a.752.752 0 0 0-.75.753c0 .415.336.747.75.747z"/>
        <path d="M9.5 16c-.824 0-1.5.672-1.5 1.5a1.5 1.5 0 0 0 3 0A1.505 1.505 0 0 0 9.5 16zm0 2.41a.915.915 0 0 1 0-1.828c.504 0 .914.41.914.914a.918.918 0 0 1-.914.914zM20.167 16c-.825 0-1.5.672-1.5 1.5 0 .824.672 1.5 1.5 1.5.824 0 1.5-.672 1.5-1.5a1.505 1.505 0 0 0-1.5-1.5zm0 2.41a.915.915 0 0 1 0-1.828c.504 0 .914.41.914.914a.92.92 0 0 1-.914.914zM14.833 16c-.824 0-1.5.672-1.5 1.5 0 .824.672 1.5 1.5 1.5.825 0 1.5-.672 1.5-1.5a1.505 1.505 0 0 0-1.5-1.5zm0 2.41a.915.915 0 0 1 0-1.828c.504 0 .914.41.914.914a.92.92 0 0 1-.914.914zM25.5 16c-.824 0-1.5.672-1.5 1.5a1.5 1.5 0 1 0 1.5-1.5zm0 2.41a.915.915 0 0 1 0-1.828.915.915 0 0 1 0 1.828z"/>
        <path stroke="#FFF" stroke-width=".5" d="M18.775 3.021a.75.75 0 1 0 0 1.5.75.75 0 0 0 0-1.5zM22.394 3.021a.75.75 0 1 0 0 1.5.75.75 0 0 0 0-1.5zM26.012 3.021a.75.75 0 1 0 0 1.5.75.75 0 0 0 0-1.5z"/>
        <path stroke="#FFF" stroke-width=".25" d="M26.53 9H16.47c-.257 0-.47.227-.47.5s.213.5.47.5h10.06c.257 0 .47-.227.47-.5s-.213-.5-.47-.5zM26.53 13H16.47c-.257 0-.47.227-.47.5s.213.5.47.5h10.06c.257 0 .47-.227.47-.5s-.213-.5-.47-.5z"/>
        <path stroke="#FFF" stroke-width=".5" d="M2 6h26v1H2z"/>
    </g>
</svg>
