<svg xmlns="http://www.w3.org/2000/svg" width="26" height="26" viewBox="0 0 26 26">
    <g fill="#FFF" fill-rule="nonzero">
        <path d="M16.774 6.771a.839.839 0 1 0 0 1.677.839.839 0 0 0 0-1.677zM9.226 8.448a.839.839 0 1 0 0-1.677.839.839 0 0 0 0 1.677zM13 8.448a.839.839 0 1 0 0-1.677.839.839 0 0 0 0 1.677z"/>
        <path d="M25.53 6.651L13.345.976a.814.814 0 0 0-.688 0L.47 6.651a.81.81 0 1 0 .687 1.47l.469-.219v16.51a.812.812 0 0 0 1.625 0V11.44h19.5v12.972a.812.812 0 0 0 1.625 0V7.902l.469.219a.813.813 0 0 0 1.08-.392.81.81 0 0 0-.393-1.078zm-2.78.735v2.432H3.25V7.386c0-.078-.024-.148-.044-.22L13 2.606l9.794 4.56c-.02.072-.044.142-.044.22z"/>
        <path d="M11.871 20.857c0-.368-.336-.667-.75-.667h-4.5c-.414 0-.75.299-.75.667v2.667c0 .368.336.666.75.666h4.5c.414 0 .75-.298.75-.666v-2.667zm-1.5 2h-3v-1.333h3v1.333zM19.42 20.857c0-.368-.336-.667-.75-.667h-4.5c-.415 0-.75.299-.75.667v2.667c0 .368.335.666.75.666h4.5c.414 0 .75-.298.75-.666v-2.667zm-1.5 2h-3v-1.333h3v1.333zM11.871 14.147c0-.368-.336-.666-.75-.666h-4.5c-.414 0-.75.298-.75.666v2.667c0 .368.336.667.75.667h4.5c.414 0 .75-.299.75-.667v-2.667zm-1.5 2h-3v-1.333h3v1.333zM19.42 14.147c0-.368-.336-.666-.75-.666h-4.5c-.415 0-.75.298-.75.666v2.667c0 .368.335.667.75.667h4.5c.414 0 .75-.299.75-.667v-2.667zm-1.5 2h-3v-1.333h3v1.333z"/>
    </g>
</svg>
