<svg xmlns="http://www.w3.org/2000/svg" width="18" height="21" viewBox="0 0 18 21">
    <g fill="none" fill-rule="nonzero">
        <path fill="#000" d="M17.735 15.114c-2.118-2.118-2.436-3.18-2.436-6.564a6.3 6.3 0 1 0-12.598 0c0 1.824-.048 2.505-.3 3.341-.312 1.042-.953 2.04-2.136 3.223C-.3 15.68.1 16.65.902 16.65h4.994l-.046.45a3.15 3.15 0 1 0 6.3 0l-.046-.45h4.994c.802 0 1.204-.97.637-1.536zM9 19.35a2.25 2.25 0 0 1-2.25-2.25l.046-.45h4.408l.046.45A2.25 2.25 0 0 1 9 19.35zm-8.098-3.6c2.7-2.7 2.7-4.5 2.7-7.2a5.4 5.4 0 1 1 10.797 0c0 2.7 0 4.5 2.7 7.2H.902z"/>
        <circle cx="13.5" cy="3" r="3" fill="#F00"/>
    </g>
</svg>
