<svg xmlns="http://www.w3.org/2000/svg" width="21" height="24" viewBox="0 0 21 24">
    <g fill="#DE340D" fill-rule="nonzero">
        <path d="M6 11.947C6 11.354 5.527 11 4.692 11c-.34 0-.571.029-.692.057v1.905c.143.028.319.038.56.038.89 0 1.44-.392 1.44-1.053zM10.737 11a3.26 3.26 0 0 0-.737.067v4.9c.139.033.363.033.566.033 1.473.01 2.434-.833 2.434-2.622.01-1.556-.865-2.378-2.263-2.378z"/>
        <path d="M19.67 8.585h-.568V5.804c0-.017-.003-.035-.005-.052a.465.465 0 0 0-.11-.305L14.413.16l-.003-.003a.463.463 0 0 0-.215-.136l-.025-.009A.459.459 0 0 0 14.064 0H2.828a.937.937 0 0 0-.93.941v7.643H1.33C.595 8.584 0 9.187 0 9.93v6.995c0 .743.595 1.345 1.33 1.345h.568v4.789c0 .519.417.941.93.941h15.344c.512 0 .93-.422.93-.941V18.27h.569c.734 0 1.329-.602 1.329-1.345V9.93c0-.743-.595-1.345-1.33-1.345zM2.829.94H13.6v4.816c0 .26.209.47.465.47h4.108v2.358H2.828V.941zm11.416 12.524c0 1.345-.484 2.273-1.155 2.847-.73.615-1.843.907-3.203.907-.813 0-1.39-.052-1.782-.104v-6.903c.577-.094 1.33-.146 2.122-.146 1.318 0 2.174.24 2.843.75.721.543 1.175 1.408 1.175 2.649zm-12.126 3.68v-6.933c.484-.083 1.164-.146 2.122-.146.968 0 1.659.188 2.122.563.443.355.741.939.741 1.627 0 .688-.226 1.272-.638 1.668-.536.511-1.329.74-2.256.74-.206 0-.392-.01-.536-.03v2.512H2.118zm16.054 5.659H2.828V18.27h15.344v4.534zm1.347-11.382H16.85v1.605h2.494v1.293H16.85v2.826h-1.575v-7.028h4.244v1.304z"/>
    </g>
</svg>
