<svg xmlns="http://www.w3.org/2000/svg" width="26" height="26" viewBox="0 0 26 26">
    <path fill="#FFF" fill-rule="nonzero" stroke="#175EC0" stroke-width=".5" d="M24 10.487h-5.27V9.184c0-.553-.445-.999-.999-.999h-1.895v-.818c.872-.685 1.376-1.665 1.376-2.708C17.212 2.64 15.327 1 13.005 1S8.798 2.64 8.798 4.659c0 1.043.504 2.023 1.376 2.708v.818H8.278c-.553 0-.999.446-.999 1v1.302H2c-.553 0-.999.446-.999 1V24c0 .553.446.999 1 .999h22c.554 0 1-.446 1-1V11.488a1 1 0 0 0-1-1zM11.669 5.971c-.549-.318-.877-.808-.877-1.312 0-.901 1.009-1.66 2.209-1.66 1.195 0 2.209.759 2.209 1.66 0 .504-.328.999-.877 1.312a1 1 0 0 0-.5.867V8.18h-1.665V6.838c0-.357-.19-.685-.5-.867zm-2.395 4.213h7.46v2.566h-7.46v-2.566zm13.729 12.818H2.998V12.486H7.27v1.263c0 .554.446 1 1 1h9.458c.553 0 .999-.446.999-1v-1.263h4.27v10.516h.006z"/>
</svg>
