<svg xmlns="http://www.w3.org/2000/svg" width="26" height="23" viewBox="0 0 26 23">
    <g fill="#FFF" fill-rule="nonzero" stroke="#FFF" stroke-width=".25">
        <path d="M21.734 3.424A10.915 10.915 0 0 0 13.967.206c-2.986 0-5.78 1.177-7.865 3.316a.597.597 0 0 0 .01.838.597.597 0 0 0 .837-.01 9.729 9.729 0 0 1 7.018-2.957c5.406-.005 9.802 4.391 9.802 9.797 0 5.407-4.396 9.802-9.802 9.802s-9.802-4.395-9.802-9.802v-.123l.976.976a.593.593 0 0 0 .838-.838L3.998 9.22a.592.592 0 0 0-.838 0l-1.986 1.986a.592.592 0 1 0 .837.838l.976-.976v.123c0 2.933 1.144 5.692 3.218 7.767a10.915 10.915 0 0 0 7.767 3.218c2.932 0 5.692-1.143 7.767-3.218a10.91 10.91 0 0 0 3.213-7.767c0-2.932-1.143-5.692-3.218-7.766z"/>
        <path d="M17.111 7.194l-7.264 7.259a.592.592 0 1 0 .838.838l7.264-7.264a.592.592 0 0 0 0-.838.596.596 0 0 0-.838.005zM15.209 12.082a2.12 2.12 0 0 0 0 2.992c.4.399.931.62 1.498.62s1.1-.221 1.498-.62a2.12 2.12 0 0 0 0-2.992 2.115 2.115 0 0 0-2.996 0zm2.159 2.159a.94.94 0 0 1-1.32 0 .934.934 0 0 1-.001-1.32.94.94 0 0 1 1.32 0 .934.934 0 0 1 0 1.32zM11.247 6.666c-.567 0-1.1.222-1.498.621-.4.4-.621.932-.621 1.498 0 .567.221 1.1.62 1.499.4.399.932.62 1.499.62.567 0 1.099-.221 1.498-.62.4-.4.62-.932.62-1.499a2.115 2.115 0 0 0-2.12-2.12zm.66 2.78a.94.94 0 0 1-1.32 0 .94.94 0 0 1 0-1.32.94.94 0 0 1 1.32 0 .92.92 0 0 1 .271.66.928.928 0 0 1-.27.66z"/>
    </g>
</svg>
