<svg xmlns="http://www.w3.org/2000/svg" width="22" height="21" viewBox="0 0 22 21">
    <g fill="#FFF" fill-rule="nonzero">
        <path d="M21.435 1.722c-.314 0-.57.25-.57.557v14.78c0 1.565-1.302 2.832-2.898 2.832H4.038c-1.601 0-2.898-1.272-2.898-2.831V1.114H17.83v14.34c0 .306.256.557.57.557.314 0 .57-.25.57-.557V.557A.565.565 0 0 0 18.4 0H.57C.257 0 0 .25 0 .557v16.498C0 19.232 1.81 21 4.038 21h13.924C20.19 21 22 19.232 22 17.055V2.28a.558.558 0 0 0-.565-.557z"/>
        <path d="M16.412 4c.323 0 .588-.225.588-.5s-.265-.5-.588-.5H3.588C3.265 3 3 3.225 3 3.5s.265.5.588.5h12.824zM16.416 15H3.588c-.323 0-.588.225-.588.5s.265.5.588.5h12.824c.323 0 .588-.225.588-.5s-.26-.5-.584-.5zM16.41 17H5.59c-.325 0-.59.225-.59.5s.265.5.59.5h10.82c.325 0 .59-.225.59-.5s-.265-.5-.59-.5zM2 6.546v5.908c0 .3.245.546.544.546h5.912c.299 0 .544-.246.544-.546V6.546C9 6.246 8.755 6 8.456 6H2.544C2.245 6 2 6.246 2 6.546zm1.089.546H7.91v4.816H3.09V7.092zM15.456 6h-3.912c-.3 0-.544.225-.544.5s.245.5.544.5h3.912c.3 0 .544-.225.544-.5s-.24-.5-.544-.5zM15.456 9h-3.912c-.3 0-.544.225-.544.5s.245.5.544.5h3.912c.3 0 .544-.225.544-.5s-.24-.5-.544-.5zM16 11.5c0-.275-.245-.5-.544-.5h-3.912c-.3 0-.544.225-.544.5s.245.5.544.5h3.912c.304 0 .544-.225.544-.5z"/>
    </g>
</svg>
