<svg xmlns="http://www.w3.org/2000/svg" width="18" height="25" viewBox="0 0 18 25">
    <g fill="#FFF" fill-rule="nonzero">
        <path d="M17.997 5.658a.561.561 0 0 0-.163-.392L13.532.965A.56.56 0 0 0 13.134.8H1.185C.533.8.002 1.33.002 1.983v21.634c0 .652.53 1.183 1.183 1.183h15.63c.652 0 1.183-.53 1.183-1.183V5.663l-.001-.005zm-4.3-2.94l2.382 2.383h-2.323a.06.06 0 0 1-.06-.059V2.72zm3.177 20.899a.06.06 0 0 1-.059.06H1.185a.06.06 0 0 1-.06-.06V1.983a.06.06 0 0 1 .06-.06h11.388v3.12c0 .652.53 1.182 1.183 1.182h3.118v17.392z"/>
        <path d="M13.973 8.488H4.027a.562.562 0 0 0 0 1.124h9.946a.562.562 0 0 0 0-1.124zM13.973 11.879H4.027a.562.562 0 0 0 0 1.124h9.946a.562.562 0 0 0 0-1.124zM13.973 15.27H4.027a.562.562 0 0 0 0 1.124h9.946a.562.562 0 0 0 0-1.124zM9 18.66H4.027a.562.562 0 0 0 0 1.125H9a.562.562 0 0 0 0-1.124z"/>
    </g>
</svg>
