<svg xmlns="http://www.w3.org/2000/svg" width="21" height="24" viewBox="0 0 21 24">
    <path fill="#0B8D18" fill-rule="nonzero" d="M19.55 8.585h-.567V5.804c0-.017-.002-.035-.004-.052a.467.467 0 0 0-.11-.305L14.325.16l-.004-.003a.457.457 0 0 0-.092-.079L14.2.061a.48.48 0 0 0-.091-.04l-.025-.008A.451.451 0 0 0 13.977 0H2.811a.934.934 0 0 0-.924.941v7.643H1.32C.59 8.584 0 9.187 0 9.93v6.995c0 .742.591 1.345 1.32 1.345h.567v4.789c0 .519.414.941.924.941h15.248c.51 0 .924-.422.924-.941V18.27h.566c.729 0 1.32-.602 1.32-1.345V9.93c0-.743-.59-1.345-1.32-1.345zM2.81.94h10.705v4.815c0 .26.207.471.462.471h4.082v2.358H2.81V.94zm9.363 12.832c-.908-.322-1.5-.833-1.5-1.643 0-.95.778-1.676 2.067-1.676.616 0 1.07.132 1.395.28l-.276 1.016a2.563 2.563 0 0 0-1.143-.264c-.535 0-.795.248-.795.537 0 .355.308.512 1.014.784.964.364 1.419.876 1.419 1.66 0 .933-.706 1.726-2.206 1.726-.624 0-1.24-.165-1.549-.339l.251-1.04c.333.173.844.347 1.37.347.569 0 .869-.24.869-.603 0-.347-.26-.545-.916-.785zm-2.092 1.28v1.058H6.667v-5.567h1.241v4.51h2.173zm-7.379 1.058h-1.41l1.58-2.817-1.524-2.75h1.42l.477 1.016c.163.338.284.61.414.925h.016c.13-.355.235-.603.373-.925l.462-1.016h1.411l-1.54 2.717 1.621 2.85H4.575l-.495-1.008c-.202-.388-.332-.677-.486-1h-.016c-.114.323-.251.612-.422 1l-.454 1.008zm15.357 6.693H2.81V18.27h15.248v4.534zm.008-6.693l-.495-1.008c-.202-.388-.332-.677-.486-1h-.016c-.113.323-.252.612-.422 1l-.454 1.008h-1.41l1.58-2.817-1.524-2.75h1.419l.479 1.016c.162.338.283.61.413.925h.016c.13-.355.235-.603.373-.925l.462-1.016h1.411l-1.54 2.717 1.621 2.85h-1.427z"/>
</svg>
